<?xml version="1.0" encoding="iso-8859-1"?>
<!-- Generator: Adobe Illustrator 18.0.0, SVG Export Plug-In . SVG Version: 6.00 Build 0)  -->
<!DOCTYPE svg PUBLIC "-//W3C//DTD SVG 1.1//EN" "http://www.w3.org/Graphics/SVG/1.1/DTD/svg11.dtd">
<svg version="1.1" id="Capa_1" xmlns="http://www.w3.org/2000/svg" xmlns:xlink="http://www.w3.org/1999/xlink" x="0px" y="0px"
	 viewBox="0 0 297.165 297.165" style="enable-background:new 0 0 297.165 297.165;" xml:space="preserve">
<g>
	<path d="M219.131,192.158c-6.338-1.097-12.832-2.768-19.853-5.107l-6.342-2.113c0.301-0.514,0.593-1.032,0.87-1.558l13.812-26.232
		c2.253-4.279,4.247-8.939,5.941-13.881c9.984-4.328,16.525-14.158,16.525-25.219c0-8.329-3.733-16.102-10.112-21.302
		c0.086-1.829,0.245-4.394,0.4-6.904c0.714-11.528,1.207-20.686,0.534-24.695c-3.003-24.132-12.178-41.788-27.27-52.476
		C181.598,4.144,166.02,0,146.014,0c-2.659,0-5.455,0.074-8.311,0.222c-13.848,0.711-23.537,4.799-28.798,12.15
		c-2.861,3.997-4.042,8.398-4.273,12.637c-0.812-0.159-1.638-0.24-2.473-0.24c-5.629,0-11.285,3.604-16.813,10.71
		c-15.448,19.862-10.38,45.966-7.945,58.511c0.186,0.958,0.394,2.03,0.559,2.952c-6.234,5.199-9.875,12.881-9.875,21.106
		c0,11.061,6.542,20.891,16.526,25.219c1.694,4.942,3.688,9.602,5.941,13.88l13.812,26.233c0.189,0.359,0.389,0.712,0.589,1.065
		l-6.673,2.307c-6.092,2.1-12.927,3.894-21.512,5.647c-19.445,3.977-33.558,21.291-33.558,41.169v6.813c0,2.762,2.239,5,5,5
		c2.761,0,5-2.238,5-5v-6.813c0-15.148,10.75-28.343,25.56-31.371c9.021-1.842,16.255-3.746,22.773-5.993l2.515-0.869
		c-3.323,12.632-1.119,28.527,2.027,36.82c0.732,1.93,2.574,3.211,4.638,3.227c0.012,0,0.024,0,0.037,0
		c2.049,0,3.892-1.251,4.648-3.158c3.9-9.843,11.011-17.05,15.856-21.108l3.073,8.384c-4.684,18.319-7.028,37.19-6.96,56.136
		l0.049,11.529H53.208v-28c0-2.762-2.239-5-5-5c-2.761,0-5,2.238-5,5v33c0,2.762,2.239,5,5,5h84.24c0.007,0,0.015,0,0.021,0h31.968
		c0.006,0,0.013,0,0.02,0h84.501c2.761,0,5-2.238,5-5v-58.601C253.957,213.057,239.31,195.643,219.131,192.158z M217.427,202.012
		c15.373,2.655,26.53,15.925,26.53,31.553v53.601h-74.539l-0.051-13.212c-0.077-18.161-2.364-36.235-6.793-53.776
		c0.008-0.021,3.33-9.061,3.33-9.061c4.845,4.058,11.956,11.264,15.857,21.108c0.756,1.907,2.599,3.158,4.648,3.158
		c0.013,0,0.025,0,0.037,0c2.064-0.016,3.906-1.297,4.638-3.227c3.128-8.245,5.322-24.004,2.082-36.6l2.951,0.983
		C203.618,199.038,210.588,200.828,217.427,202.012z M137.427,287.165l-0.007-1.673l21.637-21.637
		c0.174,3.375,0.296,6.754,0.311,10.139l0.012,3.058l-10.112,10.113H137.427z M183.025,196.46
		c1.813,5.747,2.046,13.192,1.349,19.898c-4.072-5.713-8.616-10.076-12.172-13.033C176.129,201.467,179.777,199.154,183.025,196.46z
		 M154.416,213.395h-11.666l-2.02-5.512c2.746,0.435,5.54,0.666,8.354,0.666c2.453,0,4.892-0.176,7.296-0.508L154.416,213.395z
		 M143.664,223.395h9.383c0.716,2.881,1.385,5.774,1.98,8.683l-15.96,15.96C140.114,239.743,141.648,231.513,143.664,223.395z
		 M137.68,263.565l19.44-19.44c0.322,2.216,0.609,4.438,0.861,6.664l-20.572,20.572C137.451,268.76,137.543,266.161,137.68,263.565z
		 M201.874,36.47c1.994,3.476,3.68,7.315,5.08,11.504c-4.108,1.098-10.644-0.205-13.728-1.222
		c-0.775-0.256-9.516-2.145-16.729-2.479C181.124,39.785,189.184,35.004,201.874,36.47z M203.053,58.383
		c2.149,0,4.363-0.214,6.475-0.771c0.59,2.833,1.086,5.784,1.469,8.882c0.012,0.095,0.026,0.188,0.043,0.282
		c0.51,2.803-0.089,13.333-0.538,20.649c-1.717-9.596-4.56-20.266-9.261-29.096C201.839,58.361,202.442,58.383,203.053,58.383z
		 M194.204,26.303c-16.044,1.119-26.073,10.648-30.483,17.898c-4.931,0.126-9.383,0.384-12.339,0.586
		c0.028-0.186,1.197-23.74,27.478-28.922C184.8,18.46,189.905,21.93,194.204,26.303z M131.739,34.389
		c-0.746-8.985,4.21-19.843,20.892-23.863c0.296-0.071,6.91,0.228,9.753,0.679c-12.553,6.925-18.248,18.122-20.152,26.752
		C139.468,36.528,136.02,35.257,131.739,34.389z M117.037,18.191c2.52-3.521,7.092-5.904,13.625-7.127
		c-6.419,6.341-9.176,14.387-9,22.19c-1.936-0.068-3.988-0.064-6.163,0.021C114.334,28.745,113.79,22.729,117.037,18.191z
		 M93.24,41.617c4.808-6.181,7.839-6.849,8.919-6.849c1.652,0,3.125,1.502,4.072,2.757c-9.881,11.108-15.686,36.538-18.716,54.772
		c-0.098-0.107-0.208-0.2-0.313-0.297C85.041,80.871,80.611,57.855,93.24,41.617z M99.4,152.487
		c-2.328-4.419-4.354-9.319-6.025-14.564c-0.488-1.533-1.685-2.738-3.216-3.236c-7.223-2.353-12.076-9.04-12.076-16.64
		c0-4.267,1.548-8.3,4.27-11.44l2.72,7.761c0.709,2.022,2.615,3.347,4.716,3.347c0.197,0,0.396-0.012,0.596-0.035
		c2.328-0.278,4.15-2.137,4.383-4.47c1.597-16.033,8.249-59.438,19.826-69.948c0.2,0.014,0.397,0.041,0.602,0.03
		c22.466-1.069,27.853,7.837,28.304,8.667c0.743,2.162,2.764,3.275,5.063,3.069c17.82-1.563,36.062-1.037,39.254,1.118
		c14.658,16.908,15.304,56.891,15.309,57.294c0.029,2.469,1.857,4.548,4.303,4.892c0.235,0.033,0.469,0.049,0.7,0.049
		c2.178,0,4.144-1.424,4.785-3.563c0.062-0.205,1.09-3.647,2.395-8.772c3.036,3.212,4.774,7.476,4.774,12.001
		c0,7.6-4.853,14.287-12.075,16.64c-1.531,0.498-2.728,1.703-3.216,3.236c-1.67,5.244-3.697,10.145-6.024,14.564l-13.812,26.233
		c-6.146,11.673-20.898,19.826-35.873,19.826s-29.727-8.153-35.873-19.826L99.4,152.487z M112.796,216.358
		c-0.725-6.964-0.443-14.724,1.568-20.553c3.267,2.829,6.972,5.259,10.974,7.218C121.73,205.981,117.013,210.441,112.796,216.358z"
		/>
	<path d="M178.459,276.715c0,2.762,2.239,5,5,5h17.358c2.761,0,5-2.238,5-5c0-2.762-2.239-5-5-5h-17.358
		C180.698,271.715,178.459,273.953,178.459,276.715z"/>
	<path d="M216.459,281.715h9c2.761,0,5-2.238,5-5c0-2.762-2.239-5-5-5h-9c-2.761,0-5,2.238-5,5
		C211.459,279.477,213.698,281.715,216.459,281.715z"/>
</g>
<g>
</g>
<g>
</g>
<g>
</g>
<g>
</g>
<g>
</g>
<g>
</g>
<g>
</g>
<g>
</g>
<g>
</g>
<g>
</g>
<g>
</g>
<g>
</g>
<g>
</g>
<g>
</g>
<g>
</g>
</svg>
